<svg xmlns="http://www.w3.org/2000/svg" id="Layer_1" data-name="Layer 1" viewBox="0 0 80 120"><defs><style>.cls-1{fill:#e49928;fill-rule:evenodd;}.cls-2{fill:#fff;}.cls-3{fill:#231f20;}</style></defs><path class="cls-1" d="M0,0H83.1643V120.5387H0Z"/><path class="cls-2" d="M64.5375,54.2309V65.9471c0,11.9822-.5323,21.435-21.435,21.435-4.3938,0-9.0536-.7986-12.7812-4.7931v24.3645a4.32,4.32,0,0,1-4.3939,4.26,4.2061,4.2061,0,0,1-4.26-4.26V37.7215a4.2057,4.2057,0,0,1,4.26-4.26,4.2964,4.2964,0,0,1,4.3939,4.127h1.1979c3.1954-4.7932,10.9176-4.7932,12.7812-4.7932C64.5375,32.7954,64.5375,42.2483,64.5375,54.2309Zm-8.6538.1329c0-5.991,0-13.8462-11.3169-13.8462-11.1835,0-14.2455,5.9911-14.2455,11.5828V65.8137c0,5.9911,0,13.8462,12.7812,13.8462s12.7812-7.8551,12.7812-13.8462Z"/><path class="cls-3" d="M110.0668,41.716a3.5329,3.5329,0,0,1-3.5948-3.7281,3.5761,3.5761,0,0,1,2.7961-3.5948,58.6459,58.6459,0,0,1,12.5149-1.5977c13.7133,0,22.6334,4.5268,22.6334,19.4385V82.456a4.32,4.32,0,0,1-4.3934,4.26,4.2061,4.2061,0,0,1-4.26-4.26V80.06c-3.5947,4.9261-8.92,7.3224-15.3109,7.3224-13.0476,0-18.6394-4.26-18.6394-16.9087,0-12.2485,10.5178-16.5089,20.9027-16.5089a28.1442,28.1442,0,0,1,11.8492,2.53h1.1984V52.1c0-8.5208-6.9231-11.5828-15.0446-11.5828a37.8176,37.8176,0,0,0-9.5858,1.065A3.7423,3.7423,0,0,1,110.0668,41.716Zm25.6958,30.0888V61.5533c-1.1984-.1329-5.8581-.1329-7.8551-.1329-9.32,0-17.441.932-17.441,8.7871,0,6.124,3.7277,9.5858,10.2515,9.7188C127.5082,79.9263,132.1679,76.0657,135.7626,71.8048Z"/><path class="cls-3" d="M208.0533,82.589c-3.7277,4.7931-9.5858,4.7931-14.9112,4.7931-13.0476,0-18.1071-8.6537-18.1071-20.237V37.7215a4.2056,4.2056,0,0,1,4.26-4.26,4.3192,4.3192,0,0,1,4.3938,4.26V64.7487c0,7.1895,0,14.9112,12.1156,14.9112,10.2514,0,13.58-3.4613,13.58-11.1835V37.7215a4.2057,4.2057,0,0,1,4.26-4.26,4.3192,4.3192,0,0,1,4.3934,4.26V82.456a4.32,4.32,0,0,1-4.3934,4.26,4.0963,4.0963,0,0,1-4.26-4.1274Z"/><path class="cls-3" d="M252.6515,37.7215a4.33,4.33,0,0,1,8.6542-.1329h1.3314c3.4613-4.5268,8.92-4.7932,13.98-4.7932a3.8639,3.8639,0,0,1,3.8606,3.8611,3.9521,3.9521,0,0,1-3.8606,3.8611h-1.7312c-10.2514,0-13.58,3.4618-13.58,11.1835V82.456a4.32,4.32,0,0,1-4.3938,4.26,4.206,4.206,0,0,1-4.26-4.26Z"/><path class="cls-3" d="M338.7888,82.589c-3.7277,4.7931-9.5858,4.7931-14.9112,4.7931-13.0476,0-18.1071-8.6537-18.1071-20.237V37.7215a4.2057,4.2057,0,0,1,4.26-4.26,4.3192,4.3192,0,0,1,4.3938,4.26V64.7487c0,7.1895,0,14.9112,12.1156,14.9112,10.2515,0,13.58-3.4613,13.58-11.1835V37.7215a4.2057,4.2057,0,0,1,4.26-4.26,4.32,4.32,0,0,1,4.3939,4.26V82.456a4.32,4.32,0,0,1-4.3939,4.26,4.0963,4.0963,0,0,1-4.26-4.1274Z"/><path class="cls-3" d="M381.39,81.6574a4.0323,4.0323,0,0,1,3.994-4.1274,62.8455,62.8455,0,0,0,14.9117,2.13c9.3194,0,11.0505-2.6627,11.0505-8.2544,0-10.3845-31.2876-6.2575-31.2876-23.9648,0-11.05,7.9886-14.6453,20.5034-14.6453a75.34,75.34,0,0,1,14.1126,1.3319,3.7239,3.7239,0,0,1,2.7956,3.7276,3.6452,3.6452,0,0,1-3.5947,3.8611,75.1658,75.1658,0,0,0-13.0471-1.1984c-9.4529,0-12.1155,2.13-12.1155,6.9231C388.7129,58.2249,420,53.1659,420,71.4055c0,11.7162-5.3254,15.9766-19.7043,15.9766a75.1743,75.1743,0,0,1-15.0446-1.5977C382.5884,85.2522,381.39,83.6544,381.39,81.6574Z"/><script xmlns=""/></svg>